<svg width="140" height="140" viewBox="0 0 140 140" fill="none" xmlns="http://www.w3.org/2000/svg">
<path d="M138.906 67.8125H135.625V72.1875H138.906V67.8125Z" fill="#141414"/>
<path d="M138.906 65.625H134.531C134.241 65.625 133.963 65.7402 133.758 65.9454C133.553 66.1505 133.438 66.4287 133.438 66.7188V73.2812C133.438 73.5713 133.553 73.8495 133.758 74.0546C133.963 74.2598 134.241 74.375 134.531 74.375H138.906V83.3328L127.969 84.9844C127.925 81.5034 126.501 78.1823 124.009 75.7517C121.516 73.321 118.161 71.9799 114.68 72.0234C111.199 72.0669 107.878 73.4915 105.447 75.9837C103.016 78.4759 101.675 81.8315 101.719 85.3125H85.3125V60.1562H138.906V65.625Z" fill="#141414"/>
<path d="M5.46875 74.375H1.25781L1.91406 71.0938H5.46875V74.375Z" fill="#141414"/>
<path d="M71.0938 62.3438H43.4219L35.9953 60.4844L48.3547 48.125H71.0938V62.3438Z" fill="#141414"/>
<path d="M6.56289 76.5625C6.85297 76.5625 7.13117 76.4473 7.33628 76.2421C7.5414 76.037 7.65664 75.7588 7.65664 75.4688V70C7.65664 69.7099 7.5414 69.4317 7.33628 69.2266C7.13117 69.0215 6.85297 68.9062 6.56289 68.9062H2.35196L2.66914 67.2984C2.86632 66.3381 3.37133 65.4682 4.10757 64.8208C4.84381 64.1734 5.77112 63.7837 6.74882 63.7109C40.3488 61.3047 31.7957 61.6437 34.0926 62.2781C43.9363 64.7391 42.8426 64.4656 43.2473 64.5312H72.1879C72.478 64.5312 72.7562 64.416 72.9613 64.2109C73.1664 64.0058 73.2816 63.7276 73.2816 63.4375V47.0312C73.2816 46.7412 73.1664 46.463 72.9613 46.2579C72.7562 46.0527 72.478 45.9375 72.1879 45.9375H50.5426C51.6363 44.8438 52.5332 43.75 54.5895 43.75H77.2738C78.3662 43.7851 79.4095 44.2123 80.2128 44.9533C81.0162 45.6944 81.5259 46.6999 81.6488 47.7859L83.2676 59.6313C83.0598 59.9484 83.1254 58.2641 83.1254 85.3125H33.9066C33.9066 81.8315 32.5238 78.4931 30.0624 76.0317C27.601 73.5703 24.2626 72.1875 20.7816 72.1875C17.3007 72.1875 13.9623 73.5703 11.5009 76.0317C9.03945 78.4931 7.65664 81.8315 7.65664 85.3125H1.09414V76.5625H6.56289ZM65.6254 74.375H70.0004C70.2905 74.375 70.5687 74.2598 70.7738 74.0546C70.9789 73.8495 71.0941 73.5713 71.0941 73.2812C71.0941 72.9912 70.9789 72.713 70.7738 72.5079C70.5687 72.3027 70.2905 72.1875 70.0004 72.1875H65.6254C65.3353 72.1875 65.0571 72.3027 64.852 72.5079C64.6469 72.713 64.5316 72.9912 64.5316 73.2812C64.5316 73.5713 64.6469 73.8495 64.852 74.0546C65.0571 74.2598 65.3353 74.375 65.6254 74.375Z" fill="#141414"/>
<path d="M114.844 88.5938C113.032 88.5938 111.562 87.1247 111.562 85.3125C111.562 83.5003 113.032 82.0312 114.844 82.0312C116.656 82.0312 118.125 83.5003 118.125 85.3125C118.125 87.1247 116.656 88.5938 114.844 88.5938Z" fill="#141414"/>
<path d="M114.844 74.375C117.007 74.375 119.122 75.0165 120.92 76.2183C122.719 77.4201 124.121 79.1283 124.949 81.1269C125.777 83.1255 125.993 85.3246 125.571 87.4463C125.149 89.568 124.107 91.5168 122.578 93.0465C121.048 94.5761 119.099 95.6178 116.978 96.0398C114.856 96.4619 112.657 96.2453 110.658 95.4174C108.66 94.5896 106.951 93.1877 105.75 91.389C104.548 89.5904 103.906 87.4757 103.906 85.3125C103.906 82.4117 105.059 79.6297 107.11 77.5785C109.161 75.5273 111.943 74.375 114.844 74.375ZM114.844 90.7812C115.925 90.7812 116.983 90.4605 117.882 89.8596C118.781 89.2587 119.482 88.4046 119.896 87.4053C120.31 86.406 120.418 85.3064 120.207 84.2456C119.996 83.1848 119.476 82.2103 118.711 81.4455C117.946 80.6807 116.971 80.1598 115.911 79.9488C114.85 79.7378 113.75 79.8461 112.751 80.26C111.752 80.6739 110.898 81.3749 110.297 82.2742C109.696 83.1736 109.375 84.2309 109.375 85.3125C109.375 86.7629 109.951 88.1539 110.977 89.1795C112.002 90.2051 113.393 90.7812 114.844 90.7812Z" fill="#141414"/>
<path d="M20.7812 88.5938C18.9691 88.5938 17.5 87.1247 17.5 85.3125C17.5 83.5003 18.9691 82.0312 20.7812 82.0312C22.5934 82.0312 24.0625 83.5003 24.0625 85.3125C24.0625 87.1247 22.5934 88.5938 20.7812 88.5938Z" fill="#141414"/>
<path d="M20.7812 74.375C22.9445 74.375 25.0591 75.0165 26.8578 76.2183C28.6565 77.4201 30.0583 79.1283 30.8862 81.1269C31.714 83.1255 31.9306 85.3246 31.5086 87.4463C31.0866 89.568 30.0449 91.5168 28.5152 93.0465C26.9856 94.5761 25.0367 95.6178 22.915 96.0398C20.7934 96.4619 18.5942 96.2453 16.5956 95.4174C14.5971 94.5896 12.8889 93.1877 11.687 91.389C10.4852 89.5904 9.84374 87.4757 9.84374 85.3125C9.84374 82.4117 10.9961 79.6297 13.0473 77.5785C15.0984 75.5273 17.8804 74.375 20.7812 74.375ZM20.7812 90.7812C21.8629 90.7812 22.9202 90.4605 23.8195 89.8596C24.7189 89.2587 25.4198 88.4046 25.8337 87.4053C26.2476 86.406 26.3559 85.3064 26.1449 84.2456C25.9339 83.1848 25.4131 82.2103 24.6482 81.4455C23.8834 80.6807 22.909 80.1598 21.8481 79.9488C20.7873 79.7378 19.6877 79.8461 18.6884 80.26C17.6892 80.6739 16.8351 81.3749 16.2341 82.2742C15.6332 83.1736 15.3125 84.2309 15.3125 85.3125C15.3125 86.7629 15.8887 88.1539 16.9142 89.1795C17.9398 90.2051 19.3308 90.7812 20.7812 90.7812Z" fill="#141414"/>
</svg>
