<svg width="140" height="140" viewBox="0 0 140 140" fill="none" xmlns="http://www.w3.org/2000/svg">
<path d="M109.667 79.3135C103.234 79.3135 98 84.5471 98 90.9802C98 97.4131 103.234 102.647 109.667 102.647C116.1 102.647 121.334 97.4134 121.334 90.9802C121.333 84.5473 116.1 79.3135 109.667 79.3135ZM109.667 97.9802C105.807 97.9802 102.667 94.8395 102.667 90.9802C102.667 87.1209 105.807 83.9802 109.667 83.9802C113.526 83.9802 116.667 87.1209 116.667 90.9802C116.667 94.8395 113.526 97.9802 109.667 97.9802Z" fill="#231F20"/>
<path d="M32.6668 79.3135C26.2339 79.3135 21 84.5471 21 90.9802C21 97.4131 26.2336 102.647 32.6668 102.647C39.0999 102.647 44.3335 97.4134 44.3335 90.9802C44.3332 84.5473 39.0997 79.3135 32.6668 79.3135ZM32.6668 97.9802C28.8075 97.9802 25.6668 94.8395 25.6668 90.9802C25.6668 87.1209 28.8075 83.9802 32.6668 83.9802C36.5261 83.9802 39.6668 87.1209 39.6668 90.9802C39.6668 94.8395 36.5261 97.9802 32.6668 97.9802Z" fill="#231F20"/>
<path d="M139.316 77.6639L137.667 76.0143V60.6468C137.667 59.3589 136.621 58.3135 135.334 58.3135H95.6668V39.6982C95.6668 38.4171 94.6332 37.3743 93.3496 37.365C53.5104 37.0664 45.2621 42.3257 31.3554 58.5914C15.2857 60.01 3.23395 67.0614 2.38246 75.9653L0.683594 77.6639C0.245 78.1003 0 78.6953 0 79.3136V83.9803C0 84.5985 0.245 85.1936 0.683594 85.63L2.33324 87.2796V90.9803C2.33324 92.2682 3.37859 93.3135 4.66648 93.3135H14C15.2879 93.3135 16.3332 92.2682 16.3332 90.9803C16.3332 81.9735 23.66 74.6471 32.6665 74.6471C41.673 74.6471 48.9997 81.9738 48.9997 90.9803C48.9997 92.2682 50.0451 93.3135 51.333 93.3135H91C92.2879 93.3135 93.3332 92.2682 93.3332 90.9803C93.3332 81.9735 100.66 74.6471 109.666 74.6471C118.673 74.6471 126 81.9738 126 90.9803C126 92.2682 127.045 93.3135 128.333 93.3135H135.333C135.951 93.3135 136.546 93.0685 136.983 92.63L139.316 90.2967C139.754 89.8581 139.999 89.2653 139.999 88.6471V79.3138C140 78.6953 139.755 78.1003 139.316 77.6639ZM72.3332 42.6289C77.56 42.1996 83.7153 42.0153 91 42.02V58.3114H72.3332V42.6289ZM67.6668 43.105V58.3135H37.7882C45.5025 49.7293 52.0264 45.0417 67.6668 43.105ZM135.333 87.681L134.367 88.6471H130.538C129.374 78.161 120.458 69.9803 109.666 69.9803C98.8747 69.9803 89.959 78.161 88.7947 88.6471H53.5382C52.3739 78.161 43.4582 69.9803 32.6665 69.9803C21.8747 69.9803 12.959 78.161 11.7947 88.6471H7V86.3138C7 85.6956 6.755 85.1006 6.31641 84.6642L4.66676 83.0145V80.2799L6.31641 78.6302C6.755 78.1916 7 77.5988 7 76.9806C7 76.2338 7.17254 75.4827 7.46211 74.7359L11.7157 74.6473C13.0036 74.6194 14.0257 73.553 14 72.2649C13.9721 70.977 12.8729 69.997 11.6175 69.9806L11.3072 69.9877C16.3729 66.0163 25.5918 62.9806 37.3308 62.9806H132.998V67.6473H130.664C129.376 67.6473 128.331 68.6927 128.331 69.9806C128.331 71.2685 129.376 72.3138 130.664 72.3138H132.998V76.9806C132.998 77.5988 133.243 78.1938 133.681 78.6302L135.333 80.2799V87.681Z" fill="#231F20"/>
</svg>
