<svg width="140" height="140" viewBox="0 0 140 140" fill="none" xmlns="http://www.w3.org/2000/svg">
<path d="M109.667 78.7046C103.234 78.7046 98 83.9382 98 90.3713C98 96.8042 103.234 102.038 109.667 102.038C116.1 102.038 121.334 96.8045 121.334 90.3713C121.333 83.9385 116.1 78.7046 109.667 78.7046ZM109.667 97.3713C105.807 97.3713 102.667 94.2306 102.667 90.3713C102.667 86.512 105.807 83.3713 109.667 83.3713C113.526 83.3713 116.667 86.512 116.667 90.3713C116.667 94.2306 113.526 97.3713 109.667 97.3713Z" fill="#231F20"/>
<path d="M30.3328 78.7046C23.8999 78.7046 18.666 83.9382 18.666 90.3713C18.666 96.8042 23.8996 102.038 30.3328 102.038C36.7657 102.038 41.9995 96.8045 41.9995 90.3713C41.9995 83.9385 36.7659 78.7046 30.3328 78.7046ZM30.3328 97.3713C26.4735 97.3713 23.3328 94.2306 23.3328 90.3713C23.3328 86.512 26.4735 83.3713 30.3328 83.3713C34.1921 83.3713 37.3328 86.512 37.3328 90.3713C37.3328 94.2306 34.1921 97.3713 30.3328 97.3713Z" fill="#231F20"/>
<path d="M137.667 78.7044V64.7044C137.667 63.6987 137.025 62.8073 136.071 62.4901L122.904 58.1011C117.945 49.7036 111.13 41.7118 96.0679 39.0729C96.04 39.0683 96.0118 39.0636 95.984 39.059C68.1707 35.2136 47.2872 41.4879 33.88 57.714C18.3797 57.9379 2.33324 62.8261 2.33324 71.7044V78.7044C1.04535 78.7044 0 79.7497 0 81.0376V90.3709C0 91.6588 1.04535 92.7041 2.33324 92.7041H11.6665C12.9544 92.7041 13.9997 91.6588 13.9997 90.3709C13.9997 81.3641 21.3265 74.0376 30.333 74.0376C39.3395 74.0376 46.6662 81.3644 46.6662 90.3709C46.6662 91.6588 47.7116 92.7041 48.9995 92.7041H90.9995C92.2874 92.7041 93.3327 91.6588 93.3327 90.3709C93.3327 81.3641 100.659 74.0376 109.666 74.0376C118.673 74.0376 125.999 81.3644 125.999 90.3709C125.999 91.6588 127.045 92.7041 128.332 92.7041H137.666C138.954 92.7041 139.999 91.6588 139.999 90.3709V81.0376C140 79.7497 138.955 78.7044 137.667 78.7044ZM107.448 48.0351C111.5 50.5201 114.52 53.8008 117.14 57.7044H107.356L107.448 48.0351ZM79.3332 42.6287C84.3243 42.5611 89.6326 42.8947 95.305 43.6787C98.1143 44.1733 100.583 44.8758 102.804 45.7483L102.69 57.7066H79.3332V42.6287ZM74.6668 42.8272V57.7069H40.1847C48.8343 48.784 60.2397 43.8537 74.6668 42.8272ZM135.333 88.0379H130.538C129.374 77.5518 120.458 69.3711 109.666 69.3711C98.8747 69.3711 89.959 77.5518 88.7947 88.0379H51.205C50.0407 77.5518 41.125 69.3711 30.3332 69.3711C19.5415 69.3711 10.6258 77.5518 9.46149 88.0379H4.66676V83.3711C5.95465 83.3711 7 82.3258 7 81.0379V74.0379H9.33324C10.6211 74.0379 11.6665 72.9925 11.6665 71.7047C11.6665 70.4168 10.6211 69.3714 9.33324 69.3714H8.12465C11.2818 65.9439 20.9393 62.3714 35 62.3714H120.953L133 66.3871V69.3714H130.667C129.379 69.3714 128.334 70.4168 128.334 71.7047C128.334 72.9925 129.379 74.0379 130.667 74.0379H133V81.0379C133 82.3258 134.045 83.3711 135.333 83.3711V88.0379Z" fill="#231F20"/>
</svg>
