<!-- icon666.com - MILLIONS vector ICONS FREE --><svg id="Layer_1" viewBox="0 0 100 100" xmlns="http://www.w3.org/2000/svg"><path d="m47.851 45.035c-3.446.089-6.169.159-7.053.31-1.82.312-6.01.655-7.294.155-.415.242-1.059.649-1.891 1.274-.825.619-.505 6.57.27 11.902 3.479-.066 7.865-.11 12.333-.154 2.854-.028 5.919-.059 8.829-.099.031-2.227.186-10.29.811-11.874.308-.78.478-1.341.571-1.71-2.361.086-4.609.145-6.576.196zm4.68 2.645h-3.671v-1h3.671z"></path><path d="m54.785 46.916c-.493 1.254-.693 8.292-.739 11.494 6.18-.089 11.436-.223 12.07-.471.983-.826 9.573-12.675 11.1-15.923-4.228 1.803-13.556 2.468-21.753 2.786-.086.403-.271 1.083-.678 2.114zm12.518-.236h3.895v1h-3.895z"></path><path d="m56.739 43.749.646-5.83-1.525.11c-.098.007-.182.013-.278.02l-2.022 5.821c1.037-.034 2.102-.075 3.179-.121z"></path><path d="m40.629 44.359c.955-.163 3.573-.23 7.196-.324 1.426-.037 3.007-.079 4.663-.131l2.006-5.776c-7.902.573-9.535.768-12.366 2.412-.505.294-1.339.765-2.288 1.301-1.519.857-3.789 2.14-5.024 2.885 1.283.07 3.616.008 5.813-.367z"></path><path d="m58.397 37.854-.646 5.851c7.458-.345 15.317-1.018 18.995-2.57-2.547-1.209-9.28-3.85-18.349-3.281z"></path><path d="m83.83 45.065c-.015-.172-.025-.296-.2-.556-.175-.259-.983-.618-2.046-.618-.605 0-2.064.131-2.536 1.343-.141.362-.069.533-.003.63.266.39 1.224.631 2.499.631.75 0 1.436-.082 1.755-.159.684-.164.699-.428.571-.989-.021-.092-.031-.185-.04-.282z"></path><path d="m96.583 54.853c-.169.242-.217.379-.23.437.045.002.168.03.448.03.422 0 .969-.128 1.412-.259-.054-.103-.094-.211-.13-.321-.488-.145-1.244-.252-1.5.113z"></path><path d="m96.392 46.174c-.588-.293-1.813-.794-2.985-.563-.476.093-1.02.15-1.544.205-.519.055-1.251.132-1.609.242.052.049.123.109.223.185 1.28.959 4.399 1.669 5.823 1.954-.101-.741-.057-1.504.063-1.952.005-.022.022-.049.029-.071z"></path><path d="m96.801 56.319c-.158 0-.509-.017-.83-.146-.641.424-2.407 1.629-3.92 2.971 2.109-.168 4.436-.374 5.604-1.108.354-.223 1.034-1.28 1.132-2.014.006-.043.001-.061.002-.094-.498.164-1.312.391-1.988.391z"></path><path d="m9.991 49.328c-.864-.021-2.589.213-3.343.501-1.029.393-2.651.329-3.225.292-.395.351-.727.679-1 .989.638.208 1.604.496 2.29.574.853.116 4.074-1.427 5.278-2.356z"></path><path d="m95.764 54.279c.496-.706 1.42-.751 2.181-.604.011-.405.071-.806.142-1.155.2-.994-.094-2.16-.583-2.311-.427-.131-.713-.49-.911-.935-1.086-.201-5.076-1.002-6.716-2.231-.241-.181-.88-.66-.713-1.267.194-.702 1.201-.808 2.595-.954.503-.053 1.024-.107 1.457-.192 1.461-.283 2.894.285 3.605.639.052-.091.098-.178.152-.271.214-.366.61-1.041.576-1.258h-.001c-.011 0-.05-.017-.124-.03-.248-.048-.662-.054-.995-.054-.253 0-.531.004-.83.009-2.179.031-5.427.084-7.677-1.296-2.668-1.639-15.586-6.375-25.515-6.375l-.402.003c-1.802.024-3.395.026-4.83.028-6.351.008-9.538.012-14.049 1.945-2.613 1.12-4.96 2.647-7.031 3.996-2.439 1.588-4.367 2.843-5.953 2.959-.376.027-1.03.057-1.892.094-5.242.231-19.165.844-23.163 3.772-.166.121-.312.234-.464.351.592-.017 1.23-.081 1.669-.248.478-.183 4.25-1.093 4.907-.138.072.105.278.484-.127.938-.865.97-4.765 2.991-6.309 2.992-.059 0-.112-.003-.164-.009-.911-.104-2.189-.513-2.813-.726-.832 1.344-.605 2.426-.298 3.845l.03.14c.067.312.13.561.189.779.971-.395 2.425-.795 2.862.117.31.649.48 1.645.122 2.297-.186.339-.499.552-.883.598-.26.031-.674.17-1.106.339 1.193.179 2.747.375 3.919.375.864 0 1.186-.108 1.29-.16-.085-1.719.01-5.785 2.479-8.396 1.577-1.667 3.774-2.414 6.688-2.217 6.425.449 7.517 6.518 8.041 9.434.094.521.198 1.101.29 1.35 1.418.065 10.646.408 20.689.408 10.276 0 17.448-.356 21.313-1.06 1.023-.186 1.673-1.569 2.425-3.171 1.296-2.761 3.071-6.543 8.235-6.927 6.677-.5 9.098 5.392 9.133 9.289l.001.385c0 .147-.001.298.004.413.121-.02.277-.053.448-.089.342-.071.793-.167 1.387-.258.434-.066.909-.119 1.407-.165 1.665-1.692 4.036-3.324 4.901-3.897-.022-.471.291-.927.412-1.101zm-29.084 4.477c-.541.448-4.738.591-22.454.767-4.654.046-9.221.091-12.763.163l-.438.009-.066-.435c-.421-2.791-1.662-11.998.056-13.285 1.515-1.137 2.438-1.594 2.598-1.669.668-.452 2.242-1.362 5.737-3.336.944-.533 1.774-1.002 2.277-1.294 3.188-1.853 4.863-1.974 14.162-2.645l2.123-.153c10.997-.806 18.748 3.041 20.191 3.819.192.104.316.299.34.536.21 2.126-10.936 16.839-11.763 17.523zm16.852-11.447c-.387.093-1.152.187-1.988.187-1.184 0-2.722-.185-3.324-1.066-.206-.301-.392-.816-.104-1.557.482-1.24 1.778-1.98 3.468-1.98 1.075 0 2.381.327 2.875 1.06.32.476.348.795.367 1.028.005.049.007.095.018.143.268 1.177-.173 1.911-1.312 2.185z"></path><path d="m1.592 59.325c-.042.07-.083.114-.126.175.678-.301 1.648-.694 2.226-.764.064-.008.094-.028.126-.087.146-.266.076-.913-.148-1.384-.161-.07-.922.11-1.672.415.182.618.107.808-.33 1.521z"></path><circle cx="16.407" cy="58.097" r="5.909"></circle><circle cx="78.469" cy="58.097" r="5.909"></circle></svg>