<!-- icon666.com - MILLIONS vector ICONS FREE --><svg id="Layer_1" viewBox="0 0 100 100" xmlns="http://www.w3.org/2000/svg"><path d="m74.95 46.714c-.337-1.397-.815-2.598-1.429-3.574-6.837.071-14.699.129-20.184.163-.581 3.209-.497 7.544-.247 11.209l13.884-.393c.509-1.242 2.671-5.682 7.976-7.405z"></path><path d="m87.408 41.899c-.269-.538-1.622-2.101-5.863-5.059-1.542-1.076-5.012-1.672-9.147-1.985l3.418 7.257c5.899-.065 10.609-.14 11.592-.213z"></path><path d="m70.593 34.739 1.841 7.409c.775-.008 1.535-.016 2.283-.023l-3.461-7.349c-.219-.013-.442-.025-.663-.037z"></path><path d="m97.354 56.477c-.269-1.385.829-2.896 1.31-3.479-.198-.48-.35-.567-.521-.662-.374-.208-.709-.458-1.016-1.418-.215-.68-.232-1.616-.247-2.608-.282.014-.654.027-1.07.027-.451 0-.952-.016-1.438-.063-1.761-.165-2.997-2.328-3.521-4.129-.162-.559.03-.951.22-1.182.593-.72 2.081-.881 3.21-.892-.319-.313-.65-.634-.996-.969-3.503-3.392-4.26-4.242-4.26-4.788 0-.281.138-.507.237-.671.034-.056.085-.14.094-.172-.059-.021-.555-.426-3.888-1.076-5.015-.977-20.233-1.972-30.154-1.972-2.572 0-4.692.065-6.303.193-7.614.606-18.666 6.878-22.826 9.239-.572.324-1.013.574-1.295.726-1.48.789-5.694 1.341-9.77 1.875-2.667.349-5.187.679-6.743 1.045-.446.105-.879.202-1.297.296-2.53.565-4.175.994-4.982 1.993 2.764-.865 6.497-1.842 7.326-1.106.21.185.298.455.24.739-.338 1.69-1.704 3.496-4.525 3.496-1.971 0-3.471 1.074-3.911 1.428-.182 2.267-.307 4.943-.148 7.15.138 1.923 2.742 2.13 3.855 2.13.927 0 1.596-.139 1.732-.209.004-.017.098-.109.116-.141.002-.038-.028-.258-.061-.491-.053-.375-.132-.938-.202-1.825-.179-2.244.568-4.45 2.048-6.053 1.804-1.953 4.612-2.985 8.122-2.985.291 0 .592.007.898.021 5.34.248 6.725 4.914 7.642 8.001.33 1.113.616 2.074.979 2.526.199.199.917.361 2.145.488-.483-3.789-1.939-16.2-.499-17.813 1.629-1.824 15.397-9.137 20.639-9.256.612-.014 1.485-.046 2.554-.084 7.938-.287 26.525-.96 31.071 2.213 4.411 3.077 6.54 5.164 6.328 6.205-.066.328-.315.56-.683.638-.464.097-6.111.188-13.088.264.521.951.932 2.063 1.236 3.313 1.076-.261 2.257-.421 3.574-.421h.016c3.268.003 5.918 1.053 7.877 3.117 3.429 3.615 3.707 9.196 3.705 10.949 2.431-.149 5.57-.845 6.487-1.485.269-.188.49-.467.685-.782-.597-.426-.825-.946-.902-1.34z"></path><path d="m79.5 47.019c-.005 0-.01 0-.015 0-7.573 0-10.574 5.185-11.416 7.069l2.477-.07c.219-.315.453-.626.711-.926 1.909-2.222 4.521-3.562 6.987-3.585l.132-.001c7.23 0 8.751 5.635 9.567 8.662.187.692.42 1.554.593 1.696.053.04.384.235 1.544.249-.006-1.59-.267-6.96-3.431-10.292-1.762-1.856-4.168-2.8-7.149-2.802z"></path><path d="m53.163 55.51c.212 2.719.492 4.93.612 5.815 1.259.017 2.542.029 3.811.029 9.956 0 11.156-.83 11.286-1.084-.25-1.706.135-3.535 1.053-5.234z"></path><path d="m28.813 56.198c.163 1.597.352 3.235.561 4.849 2.131.155 5.307.234 9.529.234 1.503 0 3.027-.007 4.509-.015 2.743-.013 5.338-.025 7.374.011.642.012 1.306.022 1.978.033-.135-.996-.405-3.15-.609-5.771z"></path><path d="m91.81 43.865c.455 1.566 1.48 3.303 2.654 3.413.886.084 1.839.057 2.393.028-.047-1.383-.203-2.774-.943-3.586-.162-.177-.366-.389-.592-.617-1.233-.086-3.078.006-3.48.495-.04.048-.078.111-.032.267z"></path><path d="m8.641 47.406c-.865-.145-4.17.662-7.068 1.603-.01.063-.033.114-.041.181-.06.525-.127 1.168-.193 1.864.834-.515 2.167-1.134 3.799-1.134 2.564 0 3.302-1.742 3.503-2.514z"></path><path d="m98.965 54.283c-.39.61-.749 1.389-.629 2.004.045.23.168.426.354.597.27-.82.358-1.761.275-2.601z"></path><path d="m62.818 34.55c-2.505 0-4.925.047-7.056.104v7.633c4.634-.032 10.338-.076 15.643-.129l-1.855-7.472c-2.199-.097-4.494-.136-6.732-.136z"></path><path d="m28.715 55.2 23.366-.66c-.246-3.635-.328-7.933.238-11.231-3.221.021-5.436.031-5.797.031-2.61 0-15.989.546-18.019.629-.486 1.086-.307 5.808.212 11.231z"></path><path d="m54.763 34.683c-.363.011-.707.021-1.047.033l-2.267 7.6c.999-.006 2.112-.014 3.313-.021v-7.612z"></path><path d="m48.515 34.892c-4.201.095-15.037 5.552-18.757 8.025 4.005-.163 14.438-.577 16.765-.577.484 0 1.889-.007 3.881-.019l2.257-7.57c-.567.02-1.106.038-1.578.056-1.075.039-1.952.07-2.568.085z"></path><path d="m16.403 52.127c-4.259 0-7.724 3.465-7.724 7.725s3.465 7.725 7.724 7.725 7.724-3.465 7.724-7.725-3.465-7.725-7.724-7.725z"></path><path d="m78.802 52.127c-4.26 0-7.725 3.465-7.725 7.725s3.465 7.725 7.725 7.725 7.725-3.465 7.725-7.725-3.465-7.725-7.725-7.725z"></path></svg>