<svg width="140" height="140" viewBox="0 0 140 140" fill="none" xmlns="http://www.w3.org/2000/svg">
<g clip-path="url(#clip0_40079_378)">
<path d="M109.622 78.0039C103.182 78.0039 97.9424 83.2435 97.9424 89.6835C97.9424 96.1238 103.182 101.363 109.622 101.363C116.062 101.363 121.302 96.1235 121.302 89.6835C121.302 83.2432 116.062 78.0039 109.622 78.0039ZM109.622 96.6915C105.758 96.6915 102.614 93.5472 102.614 89.6835C102.614 85.8199 105.758 82.6756 109.622 82.6756C113.486 82.6756 116.63 85.8199 116.63 89.6835C116.63 93.5472 113.486 96.6915 109.622 96.6915Z" fill="#231F20"/>
<path d="M30.1992 78.0039C23.7589 78.0039 18.5195 83.2435 18.5195 89.6835C18.5195 96.1238 23.7592 101.363 30.1992 101.363C36.6395 101.363 41.8788 96.1235 41.8788 89.6835C41.8788 83.2432 36.6395 78.0039 30.1992 78.0039ZM30.1992 96.6915C26.3355 96.6915 23.1912 93.5472 23.1912 89.6835C23.1912 85.8199 26.3355 82.6756 30.1992 82.6756C34.0628 82.6756 37.2071 85.8199 37.2071 89.6835C37.2071 93.5472 34.0628 96.6915 30.1992 96.6915Z" fill="#231F20"/>
<path d="M137.653 70.4308V59.3163C137.653 59.2417 137.564 58.8025 137.518 58.6505C137.471 58.4963 137.415 58.3563 137.34 58.216C137.305 58.1529 127.917 44.0041 127.917 44.0041C127.56 43.4692 126.997 43.1023 126.359 42.9951C67.8391 33.1724 52.8399 42.9554 52.158 43.432L34.0148 57.0389L4.3249 59.321C3.48408 59.3863 2.74334 59.8979 2.38841 60.6619C2.17349 61.1197 -2.78558 72.0659 2.25306 90.3051C2.53334 91.319 3.45373 92.0195 4.50482 92.0195H11.5122C12.8018 92.0195 13.8482 90.9731 13.8482 89.6835C13.8482 80.6666 21.1832 73.3319 30.1998 73.3319C39.2164 73.3319 46.5514 80.6669 46.5514 89.6835C46.5514 90.9731 47.5978 92.0195 48.8874 92.0195H90.9345C92.224 92.0195 93.2705 90.9731 93.2705 89.6835C93.2705 80.6666 100.605 73.3319 109.622 73.3319C118.639 73.3319 125.974 80.6669 125.974 89.6835C125.974 90.9731 127.02 92.0195 128.31 92.0195H135.318C136.161 92.0195 136.939 91.564 137.354 90.8282C142.47 81.732 138.796 72.7829 137.653 70.4308ZM124.588 47.4357L130.952 56.9804H106.305L98.9654 44.1372C106.333 44.7727 114.81 45.8167 124.588 47.4357ZM79.2546 43.3361C83.3425 43.2754 88.0448 43.3782 93.4455 43.7192C93.4922 43.8523 93.5062 43.9926 93.5786 44.1208L100.928 56.9804L79.2546 56.9828V43.3361ZM54.8557 47.2419C54.9375 47.1905 59.8383 44.2215 74.5829 43.4834V56.9828L41.8679 56.9853L54.8557 47.2419ZM133.888 87.3476H130.517C129.351 76.8497 120.426 68.66 109.622 68.66C98.8182 68.66 89.8927 76.8497 88.727 87.3476H51.0948C49.9292 76.8497 41.0036 68.66 30.1998 68.66C19.396 68.66 10.4704 76.8497 9.30476 87.3476H6.3076C4.94588 81.8137 4.62104 77.13 4.73561 73.3319H6.83807C8.12761 73.3319 9.17405 72.2855 9.17405 70.996C9.17405 69.7064 8.12761 68.66 6.83807 68.66H5.12334C5.43862 66.5157 5.8567 64.8663 6.1769 63.8666L34.8718 61.652H132.982V66.324H130.646C129.356 66.324 128.31 67.3705 128.31 68.66C128.31 69.9495 129.356 70.996 130.646 70.996H132.982C132.982 71.3908 133.087 71.7878 133.278 72.1335C133.453 72.4537 137.385 79.723 133.888 87.3476Z" fill="#231F20"/>
</g>
<defs>
<clipPath id="clip0_40079_378">
<rect width="140" height="140" fill="white"/>
</clipPath>
</defs>
</svg>
