<!-- icon666.com - MILLIONS vector ICONS FREE --><svg id="Layer_1" viewBox="0 0 100 100" xmlns="http://www.w3.org/2000/svg"><circle cx="18.352" cy="60.298" r="6.916"></circle><circle cx="80.212" cy="60.298" r="6.916"></circle><path d="m70.831 35.641 2.284 2.965v3.543c1.894-.063 3.822-.133 5.629-.209l-4.824-5.987c-.999-.102-2.037-.208-3.089-.312z"></path><path d="m53.854 35.03-1.595 8c.502-.032.994-.063 1.478-.093l.928-7.981c-.266.023-.535.047-.811.074z"></path><path d="m55.683 34.873-.93 8c.447-.028.885-.056 1.309-.082l.275-7.964c-.213.013-.432.029-.654.046z"></path><path d="m58.808 34.715c-.146 0-.28.002-.402.006-.32.011-.684.027-1.065.047l-.274 7.96c2.729-.168 4.768-.286 5.431-.296 1.72-.027 5.506-.119 9.619-.25v-3.235l-2.651-3.441c-4.342-.423-8.627-.791-10.658-.791z"></path><path d="m73.506 53.747s2.013-2.341 4.463-5.212c1.84-2.156.563-4.78.112-5.558-7.092.3-15.427.453-15.569.455-.839.013-3.979.204-7.944.454l-.471 1.595c-.428 1.45-.165 11.533-.002 16.029 13.162-.156 15.602-.515 15.964-.692.268-.228.56-1.094.868-2.011.498-1.479 1.176-3.471 2.586-5.054zm-2.466-8.07h3.151v1h-3.151z"></path><path d="m87.297 41.337c.322-.29.602-.446.808-.561.079-.043.177-.098.202-.123.02-.364-.272-.824-.527-1.133-1.104-1.338-3.726-2.62-5.609-2.743-.815-.053-2.937-.273-5.622-.552-.396-.041-.807-.083-1.227-.127l4.664 5.789c3.751-.169 6.74-.361 7.311-.55z"></path><path d="m31.064 45.207c-.324 0-.549-.011-.668-.029-.475.603-1.085 1.496-1.529 2.583-.576 1.413 1.059 9.056 2.286 13.812 1.966.008 4.698.015 7.819.015 5.678 0 10.317-.024 14.121-.065-.111-3.117-.482-14.538.045-16.324l.367-1.245c-.639.04-1.293.082-1.96.124-7.942.503-17.826 1.129-20.481 1.129zm19.05 1.47h-3.152v-1h3.152z"></path><path d="m35.036 44.063c.409-.021.837-.042 1.284-.066.872-.488 1.697-1.118 1.879-1.431-.058-.024-.156-.055-.314-.082-1.281-.209-2.289.817-2.849 1.579z"></path><path d="m3.906 57.1c-.201-.24-.391-.468-.516-.685-.138-.167-1.011-.144-2.005.099.094.305.184.543.258.737.312.817.365 1.172-.201 2.242-.072.137-.058.216-.012.299.2.359.965.718 2.002 1.001.12-.059.493-.297 1.141-1.228.587-.842.094-1.553-.667-2.465z"></path><path d="m8.649 48.846c.051-.121.102-.241.153-.361-1.125.139-4.287 1.306-7.021 2.492-.399.852-.713 1.809-.774 2.865 1.148-.803 3.311-2.17 4.99-2.367 1.626-.192 2.079-1.267 2.652-2.629z"></path><path d="m38.285 43.889c3.908-.222 8.686-.523 12.943-.793l1.586-7.956c-3.244.363-6.77.977-8.833 1.942-3.272 1.53-10.656 5.554-12.701 7.124.588-.006 1.459-.037 2.521-.084.457-.78 1.972-3.001 4.248-2.624.701.117 1.095.406 1.171.861.087.511-.355 1.051-.935 1.53z"></path><path d="m94.326 44.082c-.477.231-.946.387-1.323.512-.175.058-.391.13-.544.193.244.244.535.611.87 1.034.773.974 1.942 2.447 2.752 2.522.851.082 1.561-.145 1.925-.295-.003-.098-.007-.193-.01-.292-.026-.777-.055-1.604-.107-2.36-1.027-.759-2.76-1.699-3.563-1.314z"></path><path d="m86.422 46.867c-.212-.138-1.103-.407-1.975-.407-.323 0-1.094.045-1.254.458-.245.634-.375 1.512-.079 1.944.054.078.216.315.806.315l.143-.004c.582-.034 1.028-.043 1.379-.051.932-.02.944-.037 1.101-.246.236-.316.483-.846.403-1.3-.05-.28-.221-.512-.524-.709z"></path><path d="m98.526 52.693c-.162-.799-.329-1.625-.408-2.493-.03-.333-.053-.706-.071-1.104-.41.134-.97.263-1.615.263-.145 0-.292-.006-.444-.021-1.233-.116-2.458-1.658-3.441-2.897-.322-.406-.601-.756-.804-.958-.12-.119-.485-.48-.378-.939.116-.5.649-.676 1.323-.9.368-.123.785-.261 1.203-.463 1.145-.557 2.82.264 3.863.914-.04-.27-.087-.519-.144-.723-.182-.651-2.717-2.297-4.396-3.387-2.713-1.762-3.829-2.548-3.936-3.237-.031-.203-.045-.382-.057-.542-.039-.533-.045-.614-1.606-.788-.409-.046-1.255-.159-2.414-.315-5.152-.693-17.218-2.317-24.092-2.317-.286 0-.562.003-.829.009l-.483.01c-7.858.167-14.646.312-19.941 3.338-.824.471-1.665.962-2.516 1.46-4.979 2.913-10.127 5.925-14.408 6.307-5.538.495-19.464 4.17-20.368 5.631-.003.005-.006.01-.009.016 6.375-2.675 6.99-2.051 7.2-1.836.101.103.313.39.104.846-.101.219-.194.442-.288.665-.587 1.395-1.252 2.976-3.457 3.234-1.748.205-4.284 1.999-5.051 2.567.022.169.036.337.073.51 1.028-.259 2.621-.496 3.121.37.092.159.248.341.417.544.668.802 1.788 2.144.721 3.677-.274.395-.52.693-.743.931.6.107 1.241.189 1.897.233 1.07.071 1.794.353 2.228.521.036.014.074.028.111.043.011-.156.017-.383.017-.678 0-2.701 1.756-10.578 9.639-10.042 7.342.507 8.246 5.442 8.786 8.391.183.997.371 2.027.723 2.027l1.339.005c.219.001.464.002.726.003-.701-2.751-3-12.168-2.177-14.187.904-2.217 2.415-3.69 2.479-3.751l.046.048c2.722-2.447 12.97-7.448 13.09-7.504 3.579-1.672 10.998-2.329 14.816-2.454 2.84-.087 12.182.876 18.279 1.509 2.675.277 4.787.497 5.583.549 2.151.141 5.044 1.563 6.316 3.105.553.67.793 1.332.713 1.966-.057.456-.397.646-.672.799-.192.107-.41.229-.665.466-.357.334-4.176.605-8.746.813.621 1.279 1.509 3.958-.452 6.256-.771.903-1.487 1.741-2.122 2.483.927-.33 2.004-.528 3.278-.528l.269.003c6.035.125 7.763 4.085 8.906 6.705.428.979.831 1.903 1.235 1.954 1.858.234 5.587-.386 6.216-.493.421-.262 2.548-1.674 2.48-3.356-.046-1.191-.259-2.242-.464-3.258zm-11.183-3.217c-.461.617-.905.626-1.88.646-.342.007-.776.017-1.342.05-.069.004-.137.006-.201.006 0 0 0 0-.001 0-.922 0-1.396-.408-1.63-.75-.692-1.012-.145-2.568-.027-2.87.193-.5.73-1.097 2.186-1.097 1.016 0 2.099.295 2.521.569.532.347.865.822.963 1.374.17.966-.409 1.83-.589 2.072z"></path></svg>