<?xml version="1.0" standalone="no"?>
<!DOCTYPE svg PUBLIC "-//W3C//DTD SVG 20010904//EN"
 "http://www.w3.org/TR/2001/REC-SVG-20010904/DTD/svg10.dtd">
<svg version="1.0" xmlns="http://www.w3.org/2000/svg"
 width="700.000000pt" height="700.000000pt" viewBox="0 0 700.000000 700.000000"
 preserveAspectRatio="xMidYMid meet">
<metadata>
Created by potrace 1.14, written by Peter Selinger 2001-2017
</metadata>
<g transform="translate(0.000000,700.000000) scale(0.100000,-0.100000)"
fill="#000000" stroke="none">
<path d="M3215 6989 c-701 -60 -1353 -319 -1900 -755 -148 -118 -460 -432
-569 -574 -316 -410 -521 -827 -640 -1305 -110 -440 -134 -910 -70 -1355 88
-609 324 -1161 710 -1660 114 -148 445 -480 594 -594 659 -510 1443 -768 2255
-743 614 19 1182 185 1710 499 121 72 326 216 392 275 l43 38 -66 77 -65 77
-72 -58 c-465 -376 -1096 -628 -1726 -691 -133 -13 -504 -13 -629 0 -660 70
-1228 301 -1742 708 -122 97 -369 339 -473 465 -420 505 -672 1102 -743 1757
-22 211 -15 635 14 825 92 595 319 1117 683 1576 103 130 343 375 472 482 401
333 881 570 1382 682 273 61 361 69 725 69 364 0 452 -8 725 -69 474 -106 943
-331 1325 -635 132 -105 376 -344 483 -473 425 -512 675 -1110 747 -1789 13
-125 13 -496 0 -629 -52 -528 -232 -1043 -517 -1483 -67 -103 -169 -242 -210
-287 l-24 -26 78 -66 78 -67 38 43 c58 65 193 256 264 375 540 895 658 1959
327 2949 -118 355 -312 713 -560 1033 -115 150 -446 481 -594 594 -568 438
-1181 676 -1895 736 -140 11 -407 11 -550 -1z"/>
<path d="M3159 6365 c-526 -64 -1012 -265 -1439 -595 -126 -98 -341 -309 -453
-445 -347 -422 -568 -943 -632 -1491 -20 -168 -20 -500 0 -668 53 -453 210
-882 459 -1256 122 -182 234 -316 397 -476 461 -449 1038 -724 1679 -799 164
-20 498 -19 665 0 455 53 884 211 1263 466 183 122 311 230 472 395 422 433
683 956 781 1564 30 180 37 574 15 764 -77 668 -367 1260 -848 1732 -154 153
-266 243 -438 356 -375 247 -797 400 -1246 453 -157 18 -523 18 -675 0z m735
-215 c138 -21 403 -83 419 -99 4 -4 -142 -235 -325 -512 l-333 -504 -155 0
-156 0 -329 499 c-182 275 -330 504 -330 509 0 13 130 50 280 81 105 22 201
35 350 50 101 10 446 -4 579 -24z m-1029 -762 l380 -577 50 7 c65 9 345 9 410
0 l50 -7 379 575 c209 317 386 578 393 581 34 13 449 -219 581 -325 l24 -18
-311 -623 c-180 -359 -308 -627 -304 -634 4 -7 33 -48 66 -91 55 -75 167 -285
167 -313 0 -22 39 -30 185 -37 298 -16 1216 -74 1220 -77 8 -8 25 -246 25
-349 0 -103 -17 -341 -25 -349 -4 -3 -922 -61 -1220 -77 -144 -7 -185 -15
-185 -35 0 -40 -119 -252 -211 -375 l-30 -41 311 -623 312 -624 -24 -18 c-132
-106 -547 -338 -581 -325 -7 3 -184 264 -393 581 l-379 575 -50 -7 c-65 -9
-345 -9 -410 0 l-50 7 -379 -575 c-209 -317 -385 -578 -393 -581 -37 -14 -492
243 -596 337 -5 4 132 287 303 629 179 359 307 627 303 634 -4 7 -33 48 -66
91 -54 74 -167 285 -167 313 0 6 -6 15 -12 20 -7 4 -323 26 -701 49 -378 23
-690 43 -692 45 -8 9 -25 242 -25 349 0 107 17 340 25 349 2 2 314 22 692 45
378 23 694 45 701 49 6 5 12 14 12 20 0 28 113 239 167 313 33 43 62 84 66 91
4 7 -55 137 -139 305 -80 161 -147 294 -149 296 -2 2 -176 -76 -183 -83 -2 -1
51 -112 118 -245 l121 -242 -50 -77 c-27 -43 -62 -103 -77 -133 l-27 -55 -106
-7 c-883 -53 -1105 -66 -1108 -63 -7 8 57 237 98 348 129 354 332 677 598 951
l125 130 104 -209 c57 -114 106 -210 108 -212 4 -5 184 80 184 86 0 2 -52 107
-115 233 -63 126 -115 231 -115 233 0 9 193 139 282 191 124 73 299 157 318
153 8 -1 186 -262 395 -579z m2775 -279 c211 -282 366 -601 450 -924 16 -65
29 -120 27 -122 -2 -2 -262 13 -578 32 -316 19 -588 35 -604 35 -27 0 -34 6
-59 57 -15 31 -50 91 -77 134 l-50 77 273 547 273 547 126 -130 c70 -71 168
-185 219 -253z m-4250 -2199 c272 -17 543 -33 601 -36 l106 -7 27 -55 c15 -30
50 -90 77 -133 l50 -77 -274 -547 -273 -547 -126 131 c-308 318 -535 708 -652
1119 -39 138 -48 182 -38 182 4 0 230 -14 502 -30z m4724 3 c-108 -479 -347
-919 -692 -1274 l-126 -131 -273 547 -274 547 50 77 c27 43 62 103 77 134 l28
57 51 1 c27 0 282 15 565 33 666 43 602 42 594 9z m-2126 -1452 c183 -277 330
-507 325 -512 -16 -16 -280 -78 -424 -100 -191 -30 -561 -32 -744 -5 -196 28
-460 93 -460 113 0 5 148 234 330 509 l330 499 155 0 155 0 333 -504z"/>
<path d="M4615 5500 l-45 -90 90 -45 90 -45 46 91 c25 50 44 92 42 94 -6 5
-168 85 -173 85 -2 0 -25 -40 -50 -90z"/>
<path d="M4430 5134 c-22 -48 -40 -88 -40 -90 0 -2 40 -24 88 -48 l88 -44 46
92 46 92 -84 42 c-46 23 -89 42 -94 42 -5 0 -27 -39 -50 -86z"/>
<path d="M3341 3984 c-165 -56 -270 -162 -326 -328 -60 -180 -12 -379 125
-516 199 -199 522 -200 721 -1 199 199 198 522 -1 721 -138 138 -338 186 -519
124z m296 -209 c106 -52 167 -152 167 -275 0 -88 -22 -145 -79 -208 -117 -130
-333 -130 -450 0 -57 63 -79 120 -79 208 0 85 21 143 73 203 91 104 242 133
368 72z"/>
<path d="M5835 1170 l-70 -70 73 -73 72 -72 72 72 73 73 -70 70 c-38 38 -72
70 -75 70 -3 0 -37 -32 -75 -70z"/>
</g>
</svg>
