<svg width="26" height="25" viewBox="0 0 26 25" fill="none" xmlns="http://www.w3.org/2000/svg">
<path d="M24.331 7.13102V10.9425C24.1179 10.9425 23.8622 10.9835 23.6065 10.9835C21.6884 10.9835 19.8982 10.2867 18.5343 9.18019V17.295C18.5343 18.9343 17.9802 20.4916 16.9999 21.7212C15.636 23.4835 13.4196 24.672 10.9048 24.672C8.17695 24.672 5.79007 23.2786 4.46875 21.2293C5.83269 22.4589 7.66547 23.2376 9.66875 23.2376C12.1409 23.2376 14.3573 22.0901 15.7212 20.2867C16.659 19.0572 17.2557 17.5409 17.2557 15.8605V7.70479C18.6196 8.85233 20.3671 9.50806 22.3277 9.50806C22.5835 9.50806 22.7966 9.50806 23.0524 9.46708V7.00806C23.436 7.09003 23.777 7.13102 24.1606 7.13102H24.331Z" fill="#FF004F"/>
<path d="M11.9703 9.95895V14.1802C11.672 14.0983 11.331 14.0573 11.0326 14.0573C9.15721 14.0573 7.62278 15.5737 7.62278 17.4179C7.62278 17.8278 7.70803 18.1967 7.8359 18.5655C6.98344 17.9507 6.38672 16.9672 6.38672 15.8606C6.38672 14.0164 7.92114 12.4999 9.79655 12.4999C10.1375 12.4999 10.4359 12.5409 10.7343 12.6229V9.91797C10.8195 9.91797 10.9048 9.91797 10.99 9.91797C11.331 9.91797 11.672 9.91797 11.9703 9.95895Z" fill="#FF004F"/>
<path d="M19.1734 4.09839C18.4062 3.44266 17.8521 2.54101 17.5537 1.59839H18.5766C18.5766 1.80332 18.5766 1.96724 18.5766 2.17216C18.6619 2.8279 18.8749 3.48364 19.1734 4.09839Z" fill="#FF004F"/>
<path d="M23.0947 7.04921V9.50823C22.8816 9.54921 22.626 9.54921 22.3702 9.54921C20.4522 9.54921 18.6619 8.85249 17.298 7.74593V15.8607C17.298 17.5 16.744 19.0574 15.7636 20.2869C14.3571 22.0902 12.1833 23.2377 9.71118 23.2377C7.7079 23.2377 5.87511 22.4591 4.51118 21.2295C3.78659 20.082 3.36035 18.7706 3.36035 17.3361C3.36035 13.3607 6.64232 10.123 10.7341 10V12.7049C10.4358 12.623 10.0948 12.582 9.79642 12.582C7.92101 12.582 6.38659 14.0984 6.38659 15.9426C6.38659 17.0492 6.94068 18.0738 7.83576 18.6475C8.30462 19.9181 9.58331 20.8607 11.0325 20.8607C12.9079 20.8607 14.4424 19.3443 14.4424 17.5V1.59839H17.5538C17.8522 2.582 18.4063 3.44266 19.1735 4.09839C19.9407 5.57381 21.3899 6.68036 23.0947 7.04921Z" fill="black"/>
<path d="M10.7342 8.5246V9.91803C6.6424 10.041 3.36044 13.2787 3.36044 17.2541C3.36044 18.6885 3.78666 20 4.51125 21.1475C3.06207 19.795 2.16699 17.9098 2.16699 15.7787C2.16699 11.7213 5.57683 8.44263 9.75388 8.44263C10.0949 8.44263 10.4358 8.48361 10.7342 8.5246Z" fill="#00F7EF"/>
<path d="M17.554 1.59836H14.4424V17.418C14.4424 19.2623 12.9081 20.7786 11.0326 20.7786C9.54086 20.7786 8.30478 19.8771 7.83594 18.5656C8.39003 18.9344 9.072 19.1803 9.79659 19.1803C11.672 19.1803 13.2065 17.7049 13.2065 15.8606V0H17.3409V0.0819672C17.3409 0.245902 17.3409 0.409836 17.3835 0.573771C17.3835 0.901639 17.4687 1.27049 17.554 1.59836Z" fill="#00F7EF"/>
<path d="M23.0948 5.53257V7.00798C21.3899 6.6801 19.9408 5.57355 19.1309 4.09814C20.1964 5.04076 21.5603 5.57355 23.0948 5.53257Z" fill="#00F7EF"/>
</svg>
