<svg width="20" height="16" viewBox="0 0 20 16" fill="none" xmlns="http://www.w3.org/2000/svg">
<path d="M0.571289 4.67764L9.70329 9.42707C9.79489 9.4747 9.89662 9.49957 9.99986 9.49957C10.1031 9.49957 10.2048 9.4747 10.2964 9.42707L19.4284 4.6785V12.9285C19.4285 13.64 19.1562 14.3246 18.6676 14.8418C18.1789 15.359 17.5108 15.6696 16.8004 15.7099L16.6427 15.7142H3.357C2.64546 15.7143 1.96086 15.442 1.44366 14.9534C0.926461 14.4647 0.615859 13.7966 0.575575 13.0862L0.571289 12.9285V4.67764ZM3.357 0.285645H16.6427C17.3543 0.285598 18.0389 0.557834 18.5561 1.04651C19.0733 1.53518 19.3839 2.20324 19.4241 2.91364L19.4284 3.07136V3.22907L9.99986 8.13193L0.571289 3.22907V3.07136C0.571242 2.35981 0.843478 1.67522 1.33215 1.15802C1.82082 0.640816 2.48888 0.330215 3.19929 0.28993L3.357 0.285645H16.6427H3.357Z" fill="#141414"/>
</svg>
